<mxfile host="app.diagrams.net" modified="2024-01-13T00:03:02.420Z" agent="Mozilla/5.0 (Windows NT 10.0; Win64; x64) AppleWebKit/537.36 (KHTML, like Gecko) Chrome/120.0.0.0 Safari/537.36 Edg/120.0.0.0" etag="JLFOcyiRx_gCRloc_tjr" version="22.1.17" type="github">
  <diagram id="C5RBs43oDa-KdzZeNtuy" name="Page-1">
    <mxGraphModel dx="1810" dy="2003" grid="1" gridSize="10" guides="1" tooltips="1" connect="1" arrows="1" fold="1" page="1" pageScale="1" pageWidth="1169" pageHeight="827" math="0" shadow="0">
      <root>
        <mxCell id="WIyWlLk6GJQsqaUBKTNV-0" />
        <mxCell id="WIyWlLk6GJQsqaUBKTNV-1" parent="WIyWlLk6GJQsqaUBKTNV-0" />
        <mxCell id="lYcGLlEgrikcoU1FN13d-154" value="" style="group;fontSize=6;" vertex="1" connectable="0" parent="WIyWlLk6GJQsqaUBKTNV-1">
          <mxGeometry x="-1120" y="-1600" width="1090.82" height="670" as="geometry" />
        </mxCell>
        <mxCell id="zkfFHV4jXpPFQw0GAbJ--0" value="WestminsterShoppingManager" style="swimlane;fontStyle=2;align=center;verticalAlign=top;childLayout=stackLayout;horizontal=1;startSize=26;horizontalStack=0;resizeParent=1;resizeLast=0;collapsible=1;marginBottom=0;rounded=0;shadow=0;strokeWidth=1;fontSize=6;" parent="lYcGLlEgrikcoU1FN13d-154" vertex="1">
          <mxGeometry x="315.61796954314724" y="282.39669421487605" width="166.11472081218275" height="116.80991735537192" as="geometry">
            <mxRectangle x="230" y="140" width="160" height="26" as="alternateBounds" />
          </mxGeometry>
        </mxCell>
        <mxCell id="zkfFHV4jXpPFQw0GAbJ--1" value="- products: ArrayList&lt;Product&gt;" style="text;align=left;verticalAlign=top;spacingLeft=4;spacingRight=4;overflow=hidden;rotatable=0;points=[[0,0.5],[1,0.5]];portConstraint=eastwest;fontSize=6;" parent="zkfFHV4jXpPFQw0GAbJ--0" vertex="1">
          <mxGeometry y="26" width="166.11472081218275" height="14.396694214876035" as="geometry" />
        </mxCell>
        <mxCell id="zkfFHV4jXpPFQw0GAbJ--2" value="- totalProducts: int" style="text;align=left;verticalAlign=top;spacingLeft=4;spacingRight=4;overflow=hidden;rotatable=0;points=[[0,0.5],[1,0.5]];portConstraint=eastwest;rounded=0;shadow=0;html=0;fontSize=6;" parent="zkfFHV4jXpPFQw0GAbJ--0" vertex="1">
          <mxGeometry y="40.396694214876035" width="166.11472081218275" height="14.396694214876035" as="geometry" />
        </mxCell>
        <mxCell id="zkfFHV4jXpPFQw0GAbJ--4" value="" style="line;html=1;strokeWidth=1;align=left;verticalAlign=middle;spacingTop=-1;spacingLeft=3;spacingRight=3;rotatable=0;labelPosition=right;points=[];portConstraint=eastwest;fontSize=6;" parent="zkfFHV4jXpPFQw0GAbJ--0" vertex="1">
          <mxGeometry y="54.79338842975207" width="166.11472081218275" height="4.429752066115703" as="geometry" />
        </mxCell>
        <mxCell id="zkfFHV4jXpPFQw0GAbJ--5" value="+WestminsterShoppingManager()" style="text;align=left;verticalAlign=top;spacingLeft=4;spacingRight=4;overflow=hidden;rotatable=0;points=[[0,0.5],[1,0.5]];portConstraint=eastwest;fontSize=6;" parent="zkfFHV4jXpPFQw0GAbJ--0" vertex="1">
          <mxGeometry y="59.223140495867774" width="166.11472081218275" height="14.396694214876035" as="geometry" />
        </mxCell>
        <mxCell id="lYcGLlEgrikcoU1FN13d-0" value="+WestminsterShoppingManager(ArrayList&lt;Product&gt;)" style="text;align=left;verticalAlign=top;spacingLeft=4;spacingRight=4;overflow=hidden;rotatable=0;points=[[0,0.5],[1,0.5]];portConstraint=eastwest;fontSize=6;" vertex="1" parent="zkfFHV4jXpPFQw0GAbJ--0">
          <mxGeometry y="73.61983471074382" width="166.11472081218275" height="14.396694214876035" as="geometry" />
        </mxCell>
        <mxCell id="lYcGLlEgrikcoU1FN13d-8" value="+getTotalProducts(): int" style="text;align=left;verticalAlign=top;spacingLeft=4;spacingRight=4;overflow=hidden;rotatable=0;points=[[0,0.5],[1,0.5]];portConstraint=eastwest;fontSize=6;" vertex="1" parent="zkfFHV4jXpPFQw0GAbJ--0">
          <mxGeometry y="88.01652892561985" width="166.11472081218275" height="14.396694214876035" as="geometry" />
        </mxCell>
        <mxCell id="lYcGLlEgrikcoU1FN13d-10" value="+getProducts(): ArrayList&lt;Product&gt;" style="text;align=left;verticalAlign=top;spacingLeft=4;spacingRight=4;overflow=hidden;rotatable=0;points=[[0,0.5],[1,0.5]];portConstraint=eastwest;fontSize=6;" vertex="1" parent="zkfFHV4jXpPFQw0GAbJ--0">
          <mxGeometry y="102.41322314049589" width="166.11472081218275" height="14.396694214876035" as="geometry" />
        </mxCell>
        <mxCell id="lYcGLlEgrikcoU1FN13d-15" value="User" style="swimlane;fontStyle=2;align=center;verticalAlign=top;childLayout=stackLayout;horizontal=1;startSize=26;horizontalStack=0;resizeParent=1;resizeLast=0;collapsible=1;marginBottom=0;rounded=0;shadow=0;strokeWidth=1;fontSize=6;" vertex="1" parent="lYcGLlEgrikcoU1FN13d-154">
          <mxGeometry x="265.7835532994924" width="166.11472081218275" height="217.58677685950425" as="geometry">
            <mxRectangle x="230" y="140" width="160" height="26" as="alternateBounds" />
          </mxGeometry>
        </mxCell>
        <mxCell id="lYcGLlEgrikcoU1FN13d-16" value="- users: ArrayList&lt;User&gt;" style="text;align=left;verticalAlign=top;spacingLeft=4;spacingRight=4;overflow=hidden;rotatable=0;points=[[0,0.5],[1,0.5]];portConstraint=eastwest;fontSize=6;" vertex="1" parent="lYcGLlEgrikcoU1FN13d-15">
          <mxGeometry y="26" width="166.11472081218275" height="14.396694214876035" as="geometry" />
        </mxCell>
        <mxCell id="lYcGLlEgrikcoU1FN13d-17" value="- userName: String" style="text;align=left;verticalAlign=top;spacingLeft=4;spacingRight=4;overflow=hidden;rotatable=0;points=[[0,0.5],[1,0.5]];portConstraint=eastwest;rounded=0;shadow=0;html=0;fontSize=6;" vertex="1" parent="lYcGLlEgrikcoU1FN13d-15">
          <mxGeometry y="40.396694214876035" width="166.11472081218275" height="14.396694214876035" as="geometry" />
        </mxCell>
        <mxCell id="lYcGLlEgrikcoU1FN13d-28" value="- password: String" style="text;align=left;verticalAlign=top;spacingLeft=4;spacingRight=4;overflow=hidden;rotatable=0;points=[[0,0.5],[1,0.5]];portConstraint=eastwest;rounded=0;shadow=0;html=0;fontSize=6;" vertex="1" parent="lYcGLlEgrikcoU1FN13d-15">
          <mxGeometry y="54.79338842975207" width="166.11472081218275" height="14.396694214876035" as="geometry" />
        </mxCell>
        <mxCell id="lYcGLlEgrikcoU1FN13d-30" value="- purchaseHistory: ArrayList&lt;Product&gt;" style="text;align=left;verticalAlign=top;spacingLeft=4;spacingRight=4;overflow=hidden;rotatable=0;points=[[0,0.5],[1,0.5]];portConstraint=eastwest;fontSize=6;" vertex="1" parent="lYcGLlEgrikcoU1FN13d-15">
          <mxGeometry y="69.1900826446281" width="166.11472081218275" height="14.396694214876035" as="geometry" />
        </mxCell>
        <mxCell id="lYcGLlEgrikcoU1FN13d-18" value="" style="line;html=1;strokeWidth=1;align=left;verticalAlign=middle;spacingTop=-1;spacingLeft=3;spacingRight=3;rotatable=0;labelPosition=right;points=[];portConstraint=eastwest;fontSize=6;" vertex="1" parent="lYcGLlEgrikcoU1FN13d-15">
          <mxGeometry y="83.58677685950414" width="166.11472081218275" height="4.429752066115703" as="geometry" />
        </mxCell>
        <mxCell id="lYcGLlEgrikcoU1FN13d-20" value="+User(String, String,ArrayList&lt;Product&gt;)" style="text;align=left;verticalAlign=top;spacingLeft=4;spacingRight=4;overflow=hidden;rotatable=0;points=[[0,0.5],[1,0.5]];portConstraint=eastwest;fontSize=6;" vertex="1" parent="lYcGLlEgrikcoU1FN13d-15">
          <mxGeometry y="88.01652892561984" width="166.11472081218275" height="14.396694214876035" as="geometry" />
        </mxCell>
        <mxCell id="lYcGLlEgrikcoU1FN13d-21" value="+getUserName(): String" style="text;align=left;verticalAlign=top;spacingLeft=4;spacingRight=4;overflow=hidden;rotatable=0;points=[[0,0.5],[1,0.5]];portConstraint=eastwest;fontSize=6;" vertex="1" parent="lYcGLlEgrikcoU1FN13d-15">
          <mxGeometry y="102.41322314049587" width="166.11472081218275" height="14.396694214876035" as="geometry" />
        </mxCell>
        <mxCell id="lYcGLlEgrikcoU1FN13d-22" value="+setUserName(String)" style="text;align=left;verticalAlign=top;spacingLeft=4;spacingRight=4;overflow=hidden;rotatable=0;points=[[0,0.5],[1,0.5]];portConstraint=eastwest;fontSize=6;" vertex="1" parent="lYcGLlEgrikcoU1FN13d-15">
          <mxGeometry y="116.80991735537191" width="166.11472081218275" height="14.396694214876035" as="geometry" />
        </mxCell>
        <mxCell id="lYcGLlEgrikcoU1FN13d-31" value="+getPassword(): String" style="text;align=left;verticalAlign=top;spacingLeft=4;spacingRight=4;overflow=hidden;rotatable=0;points=[[0,0.5],[1,0.5]];portConstraint=eastwest;fontSize=6;" vertex="1" parent="lYcGLlEgrikcoU1FN13d-15">
          <mxGeometry y="131.20661157024796" width="166.11472081218275" height="14.396694214876035" as="geometry" />
        </mxCell>
        <mxCell id="lYcGLlEgrikcoU1FN13d-32" value="+setPassword(String)" style="text;align=left;verticalAlign=top;spacingLeft=4;spacingRight=4;overflow=hidden;rotatable=0;points=[[0,0.5],[1,0.5]];portConstraint=eastwest;fontSize=6;" vertex="1" parent="lYcGLlEgrikcoU1FN13d-15">
          <mxGeometry y="145.603305785124" width="166.11472081218275" height="14.396694214876035" as="geometry" />
        </mxCell>
        <mxCell id="lYcGLlEgrikcoU1FN13d-33" value="+getPurchaseHistory(): ArrayList&lt;Product&gt;" style="text;align=left;verticalAlign=top;spacingLeft=4;spacingRight=4;overflow=hidden;rotatable=0;points=[[0,0.5],[1,0.5]];portConstraint=eastwest;fontSize=6;" vertex="1" parent="lYcGLlEgrikcoU1FN13d-15">
          <mxGeometry y="160.00000000000006" width="166.11472081218275" height="14.396694214876035" as="geometry" />
        </mxCell>
        <mxCell id="lYcGLlEgrikcoU1FN13d-34" value="+setPurchaseHistory(ArrayList&lt;Product&gt;)" style="text;align=left;verticalAlign=top;spacingLeft=4;spacingRight=4;overflow=hidden;rotatable=0;points=[[0,0.5],[1,0.5]];portConstraint=eastwest;fontSize=6;" vertex="1" parent="lYcGLlEgrikcoU1FN13d-15">
          <mxGeometry y="174.3966942148761" width="166.11472081218275" height="14.396694214876035" as="geometry" />
        </mxCell>
        <mxCell id="lYcGLlEgrikcoU1FN13d-37" value="+getUsers(): ArrayList&lt;User&gt;" style="text;align=left;verticalAlign=top;spacingLeft=4;spacingRight=4;overflow=hidden;rotatable=0;points=[[0,0.5],[1,0.5]];portConstraint=eastwest;fontSize=6;" vertex="1" parent="lYcGLlEgrikcoU1FN13d-15">
          <mxGeometry y="188.79338842975216" width="166.11472081218275" height="14.396694214876035" as="geometry" />
        </mxCell>
        <mxCell id="lYcGLlEgrikcoU1FN13d-36" value="+setUsers(ArrayList&lt;User&gt;)" style="text;align=left;verticalAlign=top;spacingLeft=4;spacingRight=4;overflow=hidden;rotatable=0;points=[[0,0.5],[1,0.5]];portConstraint=eastwest;fontSize=6;" vertex="1" parent="lYcGLlEgrikcoU1FN13d-15">
          <mxGeometry y="203.1900826446282" width="166.11472081218275" height="14.396694214876035" as="geometry" />
        </mxCell>
        <mxCell id="lYcGLlEgrikcoU1FN13d-137" style="edgeStyle=orthogonalEdgeStyle;rounded=0;orthogonalLoop=1;jettySize=auto;html=1;entryX=0;entryY=0.5;entryDx=0;entryDy=0;endArrow=block;endFill=0;dashed=1;fontSize=6;" edge="1" parent="lYcGLlEgrikcoU1FN13d-154" source="lYcGLlEgrikcoU1FN13d-38" target="zkfFHV4jXpPFQw0GAbJ--5">
          <mxGeometry relative="1" as="geometry" />
        </mxCell>
        <mxCell id="lYcGLlEgrikcoU1FN13d-38" value="ShoppingManager" style="swimlane;fontStyle=2;align=center;verticalAlign=top;childLayout=stackLayout;horizontal=1;startSize=26;horizontalStack=0;resizeParent=1;resizeLast=0;collapsible=1;marginBottom=0;rounded=0;shadow=0;strokeWidth=1;fontSize=6;" vertex="1" parent="lYcGLlEgrikcoU1FN13d-154">
          <mxGeometry y="271.32231404958685" width="166.11472081218275" height="138.95867768595042" as="geometry">
            <mxRectangle x="230" y="140" width="160" height="26" as="alternateBounds" />
          </mxGeometry>
        </mxCell>
        <mxCell id="lYcGLlEgrikcoU1FN13d-43" value="" style="line;html=1;strokeWidth=1;align=left;verticalAlign=middle;spacingTop=-1;spacingLeft=3;spacingRight=3;rotatable=0;labelPosition=right;points=[];portConstraint=eastwest;fontSize=6;" vertex="1" parent="lYcGLlEgrikcoU1FN13d-38">
          <mxGeometry y="26" width="166.11472081218275" height="40.97520661157026" as="geometry" />
        </mxCell>
        <mxCell id="lYcGLlEgrikcoU1FN13d-44" value="+addProduct(Product)" style="text;align=left;verticalAlign=top;spacingLeft=4;spacingRight=4;overflow=hidden;rotatable=0;points=[[0,0.5],[1,0.5]];portConstraint=eastwest;fontSize=6;" vertex="1" parent="lYcGLlEgrikcoU1FN13d-38">
          <mxGeometry y="66.97520661157026" width="166.11472081218275" height="14.396694214876035" as="geometry" />
        </mxCell>
        <mxCell id="lYcGLlEgrikcoU1FN13d-46" value="+removeProduct(String)" style="text;align=left;verticalAlign=top;spacingLeft=4;spacingRight=4;overflow=hidden;rotatable=0;points=[[0,0.5],[1,0.5]];portConstraint=eastwest;fontSize=6;" vertex="1" parent="lYcGLlEgrikcoU1FN13d-38">
          <mxGeometry y="81.37190082644629" width="166.11472081218275" height="14.396694214876035" as="geometry" />
        </mxCell>
        <mxCell id="lYcGLlEgrikcoU1FN13d-47" value="+printProductList()" style="text;align=left;verticalAlign=top;spacingLeft=4;spacingRight=4;overflow=hidden;rotatable=0;points=[[0,0.5],[1,0.5]];portConstraint=eastwest;fontSize=6;" vertex="1" parent="lYcGLlEgrikcoU1FN13d-38">
          <mxGeometry y="95.76859504132233" width="166.11472081218275" height="14.396694214876035" as="geometry" />
        </mxCell>
        <mxCell id="lYcGLlEgrikcoU1FN13d-53" value="+loadFile()" style="text;align=left;verticalAlign=top;spacingLeft=4;spacingRight=4;overflow=hidden;rotatable=0;points=[[0,0.5],[1,0.5]];portConstraint=eastwest;fontSize=6;" vertex="1" parent="lYcGLlEgrikcoU1FN13d-38">
          <mxGeometry y="110.16528925619836" width="166.11472081218275" height="14.396694214876035" as="geometry" />
        </mxCell>
        <mxCell id="lYcGLlEgrikcoU1FN13d-54" value="+saveFile()" style="text;align=left;verticalAlign=top;spacingLeft=4;spacingRight=4;overflow=hidden;rotatable=0;points=[[0,0.5],[1,0.5]];portConstraint=eastwest;fontSize=6;" vertex="1" parent="lYcGLlEgrikcoU1FN13d-38">
          <mxGeometry y="124.5619834710744" width="166.11472081218275" height="14.396694214876035" as="geometry" />
        </mxCell>
        <mxCell id="lYcGLlEgrikcoU1FN13d-55" value="ShoppingCart" style="swimlane;fontStyle=2;align=center;verticalAlign=top;childLayout=stackLayout;horizontal=1;startSize=26;horizontalStack=0;resizeParent=1;resizeLast=0;collapsible=1;marginBottom=0;rounded=0;shadow=0;strokeWidth=1;fontSize=6;" vertex="1" parent="lYcGLlEgrikcoU1FN13d-154">
          <mxGeometry x="586.9386802030457" y="38.7603305785124" width="166.11472081218275" height="116.80991735537192" as="geometry">
            <mxRectangle x="230" y="140" width="160" height="26" as="alternateBounds" />
          </mxGeometry>
        </mxCell>
        <mxCell id="lYcGLlEgrikcoU1FN13d-70" value="- products: ArrayList&lt;Product&gt;" style="text;align=left;verticalAlign=top;spacingLeft=4;spacingRight=4;overflow=hidden;rotatable=0;points=[[0,0.5],[1,0.5]];portConstraint=eastwest;fontSize=6;" vertex="1" parent="lYcGLlEgrikcoU1FN13d-55">
          <mxGeometry y="26" width="166.11472081218275" height="14.396694214876035" as="geometry" />
        </mxCell>
        <mxCell id="lYcGLlEgrikcoU1FN13d-60" value="" style="line;html=1;strokeWidth=1;align=left;verticalAlign=middle;spacingTop=-1;spacingLeft=3;spacingRight=3;rotatable=0;labelPosition=right;points=[];portConstraint=eastwest;fontSize=6;" vertex="1" parent="lYcGLlEgrikcoU1FN13d-55">
          <mxGeometry y="40.396694214876035" width="166.11472081218275" height="4.429752066115703" as="geometry" />
        </mxCell>
        <mxCell id="lYcGLlEgrikcoU1FN13d-61" value="+ShoppingCart(ArrayList&lt;Product&gt;)" style="text;align=left;verticalAlign=top;spacingLeft=4;spacingRight=4;overflow=hidden;rotatable=0;points=[[0,0.5],[1,0.5]];portConstraint=eastwest;fontSize=6;" vertex="1" parent="lYcGLlEgrikcoU1FN13d-55">
          <mxGeometry y="44.82644628099174" width="166.11472081218275" height="14.396694214876035" as="geometry" />
        </mxCell>
        <mxCell id="lYcGLlEgrikcoU1FN13d-62" value="+addProduct(Product)" style="text;align=left;verticalAlign=top;spacingLeft=4;spacingRight=4;overflow=hidden;rotatable=0;points=[[0,0.5],[1,0.5]];portConstraint=eastwest;fontSize=6;" vertex="1" parent="lYcGLlEgrikcoU1FN13d-55">
          <mxGeometry y="59.223140495867774" width="166.11472081218275" height="14.396694214876035" as="geometry" />
        </mxCell>
        <mxCell id="lYcGLlEgrikcoU1FN13d-71" value="+removeProduct(Product)" style="text;align=left;verticalAlign=top;spacingLeft=4;spacingRight=4;overflow=hidden;rotatable=0;points=[[0,0.5],[1,0.5]];portConstraint=eastwest;fontSize=6;" vertex="1" parent="lYcGLlEgrikcoU1FN13d-55">
          <mxGeometry y="73.61983471074382" width="166.11472081218275" height="14.396694214876035" as="geometry" />
        </mxCell>
        <mxCell id="lYcGLlEgrikcoU1FN13d-72" value="+getProducts(): ArrayList&lt;Product&gt;" style="text;align=left;verticalAlign=top;spacingLeft=4;spacingRight=4;overflow=hidden;rotatable=0;points=[[0,0.5],[1,0.5]];portConstraint=eastwest;fontSize=6;" vertex="1" parent="lYcGLlEgrikcoU1FN13d-55">
          <mxGeometry y="88.01652892561985" width="166.11472081218275" height="14.396694214876035" as="geometry" />
        </mxCell>
        <mxCell id="lYcGLlEgrikcoU1FN13d-64" value="+calculateTotalPrice(): double" style="text;align=left;verticalAlign=top;spacingLeft=4;spacingRight=4;overflow=hidden;rotatable=0;points=[[0,0.5],[1,0.5]];portConstraint=eastwest;fontSize=6;" vertex="1" parent="lYcGLlEgrikcoU1FN13d-55">
          <mxGeometry y="102.41322314049589" width="166.11472081218275" height="14.396694214876035" as="geometry" />
        </mxCell>
        <mxCell id="lYcGLlEgrikcoU1FN13d-138" style="edgeStyle=orthogonalEdgeStyle;rounded=0;orthogonalLoop=1;jettySize=auto;html=1;entryX=0;entryY=0.5;entryDx=0;entryDy=0;endArrow=none;endFill=0;fontSize=6;" edge="1" parent="lYcGLlEgrikcoU1FN13d-154" source="lYcGLlEgrikcoU1FN13d-15" target="lYcGLlEgrikcoU1FN13d-71">
          <mxGeometry relative="1" as="geometry" />
        </mxCell>
        <mxCell id="lYcGLlEgrikcoU1FN13d-73" value="Product" style="swimlane;fontStyle=2;align=center;verticalAlign=top;childLayout=stackLayout;horizontal=1;startSize=26;horizontalStack=0;resizeParent=1;resizeLast=0;collapsible=1;marginBottom=0;rounded=0;shadow=0;strokeWidth=1;fontSize=6;" vertex="1" parent="lYcGLlEgrikcoU1FN13d-154">
          <mxGeometry x="791.813502538071" y="148.39669421487605" width="166.11472081218275" height="289.5702479338845" as="geometry">
            <mxRectangle x="230" y="140" width="160" height="26" as="alternateBounds" />
          </mxGeometry>
        </mxCell>
        <mxCell id="lYcGLlEgrikcoU1FN13d-75" value="- productId: String" style="text;align=left;verticalAlign=top;spacingLeft=4;spacingRight=4;overflow=hidden;rotatable=0;points=[[0,0.5],[1,0.5]];portConstraint=eastwest;rounded=0;shadow=0;html=0;fontSize=6;" vertex="1" parent="lYcGLlEgrikcoU1FN13d-73">
          <mxGeometry y="26" width="166.11472081218275" height="14.396694214876035" as="geometry" />
        </mxCell>
        <mxCell id="lYcGLlEgrikcoU1FN13d-76" value="- productName: String" style="text;align=left;verticalAlign=top;spacingLeft=4;spacingRight=4;overflow=hidden;rotatable=0;points=[[0,0.5],[1,0.5]];portConstraint=eastwest;rounded=0;shadow=0;html=0;fontSize=6;" vertex="1" parent="lYcGLlEgrikcoU1FN13d-73">
          <mxGeometry y="40.396694214876035" width="166.11472081218275" height="14.396694214876035" as="geometry" />
        </mxCell>
        <mxCell id="lYcGLlEgrikcoU1FN13d-88" value="- noOfAvailableItems: int" style="text;align=left;verticalAlign=top;spacingLeft=4;spacingRight=4;overflow=hidden;rotatable=0;points=[[0,0.5],[1,0.5]];portConstraint=eastwest;rounded=0;shadow=0;html=0;fontSize=6;" vertex="1" parent="lYcGLlEgrikcoU1FN13d-73">
          <mxGeometry y="54.79338842975207" width="166.11472081218275" height="14.396694214876035" as="geometry" />
        </mxCell>
        <mxCell id="lYcGLlEgrikcoU1FN13d-89" value="- price: double" style="text;align=left;verticalAlign=top;spacingLeft=4;spacingRight=4;overflow=hidden;rotatable=0;points=[[0,0.5],[1,0.5]];portConstraint=eastwest;rounded=0;shadow=0;html=0;fontSize=6;" vertex="1" parent="lYcGLlEgrikcoU1FN13d-73">
          <mxGeometry y="69.1900826446281" width="166.11472081218275" height="14.396694214876035" as="geometry" />
        </mxCell>
        <mxCell id="lYcGLlEgrikcoU1FN13d-90" value="- productType: String" style="text;align=left;verticalAlign=top;spacingLeft=4;spacingRight=4;overflow=hidden;rotatable=0;points=[[0,0.5],[1,0.5]];portConstraint=eastwest;rounded=0;shadow=0;html=0;fontSize=6;" vertex="1" parent="lYcGLlEgrikcoU1FN13d-73">
          <mxGeometry y="83.58677685950414" width="166.11472081218275" height="14.396694214876035" as="geometry" />
        </mxCell>
        <mxCell id="lYcGLlEgrikcoU1FN13d-78" value="" style="line;html=1;strokeWidth=1;align=left;verticalAlign=middle;spacingTop=-1;spacingLeft=3;spacingRight=3;rotatable=0;labelPosition=right;points=[];portConstraint=eastwest;fontSize=6;" vertex="1" parent="lYcGLlEgrikcoU1FN13d-73">
          <mxGeometry y="97.98347107438018" width="166.11472081218275" height="4.429752066115703" as="geometry" />
        </mxCell>
        <mxCell id="lYcGLlEgrikcoU1FN13d-79" value="+Product(String, String, int, double, String)" style="text;align=left;verticalAlign=top;spacingLeft=4;spacingRight=4;overflow=hidden;rotatable=0;points=[[0,0.5],[1,0.5]];portConstraint=eastwest;fontSize=6;" vertex="1" parent="lYcGLlEgrikcoU1FN13d-73">
          <mxGeometry y="102.41322314049587" width="166.11472081218275" height="14.396694214876035" as="geometry" />
        </mxCell>
        <mxCell id="lYcGLlEgrikcoU1FN13d-80" value="+getProductId(): String" style="text;align=left;verticalAlign=top;spacingLeft=4;spacingRight=4;overflow=hidden;rotatable=0;points=[[0,0.5],[1,0.5]];portConstraint=eastwest;fontSize=6;" vertex="1" parent="lYcGLlEgrikcoU1FN13d-73">
          <mxGeometry y="116.80991735537191" width="166.11472081218275" height="14.396694214876035" as="geometry" />
        </mxCell>
        <mxCell id="lYcGLlEgrikcoU1FN13d-81" value="+setProductId(String)" style="text;align=left;verticalAlign=top;spacingLeft=4;spacingRight=4;overflow=hidden;rotatable=0;points=[[0,0.5],[1,0.5]];portConstraint=eastwest;fontSize=6;" vertex="1" parent="lYcGLlEgrikcoU1FN13d-73">
          <mxGeometry y="131.20661157024796" width="166.11472081218275" height="14.396694214876035" as="geometry" />
        </mxCell>
        <mxCell id="lYcGLlEgrikcoU1FN13d-92" value="+getProductName(): String" style="text;align=left;verticalAlign=top;spacingLeft=4;spacingRight=4;overflow=hidden;rotatable=0;points=[[0,0.5],[1,0.5]];portConstraint=eastwest;fontSize=6;" vertex="1" parent="lYcGLlEgrikcoU1FN13d-73">
          <mxGeometry y="145.603305785124" width="166.11472081218275" height="14.396694214876035" as="geometry" />
        </mxCell>
        <mxCell id="lYcGLlEgrikcoU1FN13d-91" value="+setProductName(String)" style="text;align=left;verticalAlign=top;spacingLeft=4;spacingRight=4;overflow=hidden;rotatable=0;points=[[0,0.5],[1,0.5]];portConstraint=eastwest;fontSize=6;" vertex="1" parent="lYcGLlEgrikcoU1FN13d-73">
          <mxGeometry y="160.00000000000006" width="166.11472081218275" height="14.396694214876035" as="geometry" />
        </mxCell>
        <mxCell id="lYcGLlEgrikcoU1FN13d-93" value="+getNoOfAvailableItems(): int" style="text;align=left;verticalAlign=top;spacingLeft=4;spacingRight=4;overflow=hidden;rotatable=0;points=[[0,0.5],[1,0.5]];portConstraint=eastwest;fontSize=6;" vertex="1" parent="lYcGLlEgrikcoU1FN13d-73">
          <mxGeometry y="174.3966942148761" width="166.11472081218275" height="14.396694214876035" as="geometry" />
        </mxCell>
        <mxCell id="lYcGLlEgrikcoU1FN13d-96" value="+setNoOfAvailableItems(int)" style="text;align=left;verticalAlign=top;spacingLeft=4;spacingRight=4;overflow=hidden;rotatable=0;points=[[0,0.5],[1,0.5]];portConstraint=eastwest;fontSize=6;" vertex="1" parent="lYcGLlEgrikcoU1FN13d-73">
          <mxGeometry y="188.79338842975216" width="166.11472081218275" height="14.396694214876035" as="geometry" />
        </mxCell>
        <mxCell id="lYcGLlEgrikcoU1FN13d-98" value="+getPrice(): double" style="text;align=left;verticalAlign=top;spacingLeft=4;spacingRight=4;overflow=hidden;rotatable=0;points=[[0,0.5],[1,0.5]];portConstraint=eastwest;fontSize=6;" vertex="1" parent="lYcGLlEgrikcoU1FN13d-73">
          <mxGeometry y="203.1900826446282" width="166.11472081218275" height="14.396694214876035" as="geometry" />
        </mxCell>
        <mxCell id="lYcGLlEgrikcoU1FN13d-97" value="+setPrice(double)" style="text;align=left;verticalAlign=top;spacingLeft=4;spacingRight=4;overflow=hidden;rotatable=0;points=[[0,0.5],[1,0.5]];portConstraint=eastwest;fontSize=6;" vertex="1" parent="lYcGLlEgrikcoU1FN13d-73">
          <mxGeometry y="217.58677685950425" width="166.11472081218275" height="14.396694214876035" as="geometry" />
        </mxCell>
        <mxCell id="lYcGLlEgrikcoU1FN13d-100" value="+getProductType(): String" style="text;align=left;verticalAlign=top;spacingLeft=4;spacingRight=4;overflow=hidden;rotatable=0;points=[[0,0.5],[1,0.5]];portConstraint=eastwest;fontSize=6;" vertex="1" parent="lYcGLlEgrikcoU1FN13d-73">
          <mxGeometry y="231.9834710743803" width="166.11472081218275" height="14.396694214876035" as="geometry" />
        </mxCell>
        <mxCell id="lYcGLlEgrikcoU1FN13d-99" value="+setProductType(String)" style="text;align=left;verticalAlign=top;spacingLeft=4;spacingRight=4;overflow=hidden;rotatable=0;points=[[0,0.5],[1,0.5]];portConstraint=eastwest;fontSize=6;" vertex="1" parent="lYcGLlEgrikcoU1FN13d-73">
          <mxGeometry y="246.38016528925635" width="166.11472081218275" height="14.396694214876035" as="geometry" />
        </mxCell>
        <mxCell id="lYcGLlEgrikcoU1FN13d-101" value="+printProductDetails()" style="text;align=left;verticalAlign=top;spacingLeft=4;spacingRight=4;overflow=hidden;rotatable=0;points=[[0,0.5],[1,0.5]];portConstraint=eastwest;fontSize=6;" vertex="1" parent="lYcGLlEgrikcoU1FN13d-73">
          <mxGeometry y="260.7768595041324" width="166.11472081218275" height="14.396694214876035" as="geometry" />
        </mxCell>
        <mxCell id="lYcGLlEgrikcoU1FN13d-102" value="+contentStoreFile(): String" style="text;align=left;verticalAlign=top;spacingLeft=4;spacingRight=4;overflow=hidden;rotatable=0;points=[[0,0.5],[1,0.5]];portConstraint=eastwest;fontSize=6;" vertex="1" parent="lYcGLlEgrikcoU1FN13d-73">
          <mxGeometry y="275.17355371900845" width="166.11472081218275" height="14.396694214876035" as="geometry" />
        </mxCell>
        <mxCell id="lYcGLlEgrikcoU1FN13d-103" value="Electronics" style="swimlane;fontStyle=2;align=center;verticalAlign=top;childLayout=stackLayout;horizontal=1;startSize=26;horizontalStack=0;resizeParent=1;resizeLast=0;collapsible=1;marginBottom=0;rounded=0;shadow=0;strokeWidth=1;fontSize=6;" vertex="1" parent="lYcGLlEgrikcoU1FN13d-154">
          <mxGeometry x="646.1862639593909" y="537.107438016529" width="166.11472081218275" height="132.8925619834711" as="geometry">
            <mxRectangle x="230" y="140" width="160" height="26" as="alternateBounds" />
          </mxGeometry>
        </mxCell>
        <mxCell id="lYcGLlEgrikcoU1FN13d-104" value="- brand: String" style="text;align=left;verticalAlign=top;spacingLeft=4;spacingRight=4;overflow=hidden;rotatable=0;points=[[0,0.5],[1,0.5]];portConstraint=eastwest;rounded=0;shadow=0;html=0;fontSize=6;" vertex="1" parent="lYcGLlEgrikcoU1FN13d-103">
          <mxGeometry y="26" width="166.11472081218275" height="14.396694214876035" as="geometry" />
        </mxCell>
        <mxCell id="lYcGLlEgrikcoU1FN13d-106" value="- warrantyPeriod: int" style="text;align=left;verticalAlign=top;spacingLeft=4;spacingRight=4;overflow=hidden;rotatable=0;points=[[0,0.5],[1,0.5]];portConstraint=eastwest;rounded=0;shadow=0;html=0;fontSize=6;" vertex="1" parent="lYcGLlEgrikcoU1FN13d-103">
          <mxGeometry y="40.396694214876035" width="166.11472081218275" height="14.396694214876035" as="geometry" />
        </mxCell>
        <mxCell id="lYcGLlEgrikcoU1FN13d-109" value="" style="line;html=1;strokeWidth=1;align=left;verticalAlign=middle;spacingTop=-1;spacingLeft=3;spacingRight=3;rotatable=0;labelPosition=right;points=[];portConstraint=eastwest;fontSize=6;" vertex="1" parent="lYcGLlEgrikcoU1FN13d-103">
          <mxGeometry y="54.79338842975207" width="166.11472081218275" height="4.429752066115703" as="geometry" />
        </mxCell>
        <mxCell id="lYcGLlEgrikcoU1FN13d-110" value="+Electronics(String, String, int, double, String, int)" style="text;align=left;verticalAlign=top;spacingLeft=4;spacingRight=4;overflow=hidden;rotatable=0;points=[[0,0.5],[1,0.5]];portConstraint=eastwest;fontSize=6;" vertex="1" parent="lYcGLlEgrikcoU1FN13d-103">
          <mxGeometry y="59.223140495867774" width="166.11472081218275" height="14.396694214876035" as="geometry" />
        </mxCell>
        <mxCell id="lYcGLlEgrikcoU1FN13d-111" value="+getBrand(): String" style="text;align=left;verticalAlign=top;spacingLeft=4;spacingRight=4;overflow=hidden;rotatable=0;points=[[0,0.5],[1,0.5]];portConstraint=eastwest;fontSize=6;" vertex="1" parent="lYcGLlEgrikcoU1FN13d-103">
          <mxGeometry y="73.61983471074382" width="166.11472081218275" height="14.396694214876035" as="geometry" />
        </mxCell>
        <mxCell id="lYcGLlEgrikcoU1FN13d-112" value="+setBrand(String)" style="text;align=left;verticalAlign=top;spacingLeft=4;spacingRight=4;overflow=hidden;rotatable=0;points=[[0,0.5],[1,0.5]];portConstraint=eastwest;fontSize=6;" vertex="1" parent="lYcGLlEgrikcoU1FN13d-103">
          <mxGeometry y="88.01652892561985" width="166.11472081218275" height="14.396694214876035" as="geometry" />
        </mxCell>
        <mxCell id="lYcGLlEgrikcoU1FN13d-115" value="+getWarrantyPeriod(): int" style="text;align=left;verticalAlign=top;spacingLeft=4;spacingRight=4;overflow=hidden;rotatable=0;points=[[0,0.5],[1,0.5]];portConstraint=eastwest;fontSize=6;" vertex="1" parent="lYcGLlEgrikcoU1FN13d-103">
          <mxGeometry y="102.41322314049589" width="166.11472081218275" height="14.396694214876035" as="geometry" />
        </mxCell>
        <mxCell id="lYcGLlEgrikcoU1FN13d-116" value="+setWarrantyPeriod(int)" style="text;align=left;verticalAlign=top;spacingLeft=4;spacingRight=4;overflow=hidden;rotatable=0;points=[[0,0.5],[1,0.5]];portConstraint=eastwest;fontSize=6;" vertex="1" parent="lYcGLlEgrikcoU1FN13d-103">
          <mxGeometry y="116.80991735537192" width="166.11472081218275" height="14.396694214876035" as="geometry" />
        </mxCell>
        <mxCell id="lYcGLlEgrikcoU1FN13d-123" value="Clothing" style="swimlane;fontStyle=2;align=center;verticalAlign=top;childLayout=stackLayout;horizontal=1;startSize=26;horizontalStack=0;resizeParent=1;resizeLast=0;collapsible=1;marginBottom=0;rounded=0;shadow=0;strokeWidth=1;fontSize=6;" vertex="1" parent="lYcGLlEgrikcoU1FN13d-154">
          <mxGeometry x="924.7052791878173" y="537.107438016529" width="166.11472081218275" height="132.8925619834711" as="geometry">
            <mxRectangle x="230" y="140" width="160" height="26" as="alternateBounds" />
          </mxGeometry>
        </mxCell>
        <mxCell id="lYcGLlEgrikcoU1FN13d-124" value="- size: String" style="text;align=left;verticalAlign=top;spacingLeft=4;spacingRight=4;overflow=hidden;rotatable=0;points=[[0,0.5],[1,0.5]];portConstraint=eastwest;rounded=0;shadow=0;html=0;fontSize=6;" vertex="1" parent="lYcGLlEgrikcoU1FN13d-123">
          <mxGeometry y="26" width="166.11472081218275" height="14.396694214876035" as="geometry" />
        </mxCell>
        <mxCell id="lYcGLlEgrikcoU1FN13d-132" value="- color: String" style="text;align=left;verticalAlign=top;spacingLeft=4;spacingRight=4;overflow=hidden;rotatable=0;points=[[0,0.5],[1,0.5]];portConstraint=eastwest;rounded=0;shadow=0;html=0;fontSize=6;" vertex="1" parent="lYcGLlEgrikcoU1FN13d-123">
          <mxGeometry y="40.396694214876035" width="166.11472081218275" height="14.396694214876035" as="geometry" />
        </mxCell>
        <mxCell id="lYcGLlEgrikcoU1FN13d-126" value="" style="line;html=1;strokeWidth=1;align=left;verticalAlign=middle;spacingTop=-1;spacingLeft=3;spacingRight=3;rotatable=0;labelPosition=right;points=[];portConstraint=eastwest;fontSize=6;" vertex="1" parent="lYcGLlEgrikcoU1FN13d-123">
          <mxGeometry y="54.79338842975207" width="166.11472081218275" height="4.429752066115703" as="geometry" />
        </mxCell>
        <mxCell id="lYcGLlEgrikcoU1FN13d-127" value="+Clothing(String, String, int, double, String, String)" style="text;align=left;verticalAlign=top;spacingLeft=4;spacingRight=4;overflow=hidden;rotatable=0;points=[[0,0.5],[1,0.5]];portConstraint=eastwest;fontSize=6;" vertex="1" parent="lYcGLlEgrikcoU1FN13d-123">
          <mxGeometry y="59.223140495867774" width="166.11472081218275" height="14.396694214876035" as="geometry" />
        </mxCell>
        <mxCell id="lYcGLlEgrikcoU1FN13d-128" value="+getSize(): String" style="text;align=left;verticalAlign=top;spacingLeft=4;spacingRight=4;overflow=hidden;rotatable=0;points=[[0,0.5],[1,0.5]];portConstraint=eastwest;fontSize=6;" vertex="1" parent="lYcGLlEgrikcoU1FN13d-123">
          <mxGeometry y="73.61983471074382" width="166.11472081218275" height="14.396694214876035" as="geometry" />
        </mxCell>
        <mxCell id="lYcGLlEgrikcoU1FN13d-129" value="+setSize(String)" style="text;align=left;verticalAlign=top;spacingLeft=4;spacingRight=4;overflow=hidden;rotatable=0;points=[[0,0.5],[1,0.5]];portConstraint=eastwest;fontSize=6;" vertex="1" parent="lYcGLlEgrikcoU1FN13d-123">
          <mxGeometry y="88.01652892561985" width="166.11472081218275" height="14.396694214876035" as="geometry" />
        </mxCell>
        <mxCell id="lYcGLlEgrikcoU1FN13d-133" value="+getColor(): String" style="text;align=left;verticalAlign=top;spacingLeft=4;spacingRight=4;overflow=hidden;rotatable=0;points=[[0,0.5],[1,0.5]];portConstraint=eastwest;fontSize=6;" vertex="1" parent="lYcGLlEgrikcoU1FN13d-123">
          <mxGeometry y="102.41322314049589" width="166.11472081218275" height="14.396694214876035" as="geometry" />
        </mxCell>
        <mxCell id="lYcGLlEgrikcoU1FN13d-134" value="+setColor(String)" style="text;align=left;verticalAlign=top;spacingLeft=4;spacingRight=4;overflow=hidden;rotatable=0;points=[[0,0.5],[1,0.5]];portConstraint=eastwest;fontSize=6;" vertex="1" parent="lYcGLlEgrikcoU1FN13d-123">
          <mxGeometry y="116.80991735537192" width="166.11472081218275" height="14.396694214876035" as="geometry" />
        </mxCell>
        <mxCell id="lYcGLlEgrikcoU1FN13d-135" value="" style="endArrow=block;html=1;strokeWidth=2;rounded=0;entryX=0.515;entryY=1.038;entryDx=0;entryDy=0;entryPerimeter=0;endFill=0;exitX=0.5;exitY=0;exitDx=0;exitDy=0;edgeStyle=orthogonalEdgeStyle;fontSize=6;" edge="1" parent="lYcGLlEgrikcoU1FN13d-154" source="lYcGLlEgrikcoU1FN13d-103" target="lYcGLlEgrikcoU1FN13d-102">
          <mxGeometry width="50" height="50" relative="1" as="geometry">
            <mxPoint x="813.9621319796954" y="509.4214876033058" as="sourcePoint" />
            <mxPoint x="841.6479187817259" y="481.7355371900827" as="targetPoint" />
          </mxGeometry>
        </mxCell>
        <mxCell id="lYcGLlEgrikcoU1FN13d-136" value="" style="endArrow=block;html=1;strokeWidth=2;rounded=0;entryX=0.514;entryY=1.019;entryDx=0;entryDy=0;entryPerimeter=0;endFill=0;exitX=0.5;exitY=0;exitDx=0;exitDy=0;edgeStyle=orthogonalEdgeStyle;fontSize=6;" edge="1" parent="lYcGLlEgrikcoU1FN13d-154" source="lYcGLlEgrikcoU1FN13d-123" target="lYcGLlEgrikcoU1FN13d-102">
          <mxGeometry width="50" height="50" relative="1" as="geometry">
            <mxPoint x="734.7807817258883" y="542.6446280991737" as="sourcePoint" />
            <mxPoint x="883.1765989847717" y="432.45454545454555" as="targetPoint" />
          </mxGeometry>
        </mxCell>
        <mxCell id="lYcGLlEgrikcoU1FN13d-139" value="1..1" style="text;html=1;align=center;verticalAlign=middle;resizable=0;points=[];autosize=1;strokeColor=none;fillColor=none;fontSize=6;" vertex="1" parent="lYcGLlEgrikcoU1FN13d-154">
          <mxGeometry x="436.89827411167516" y="120.17355371900828" width="30" height="20" as="geometry" />
        </mxCell>
        <mxCell id="lYcGLlEgrikcoU1FN13d-140" value="0..1" style="text;html=1;align=center;verticalAlign=middle;resizable=0;points=[];autosize=1;strokeColor=none;fillColor=none;fontSize=6;" vertex="1" parent="lYcGLlEgrikcoU1FN13d-154">
          <mxGeometry x="564.2528934010153" y="115.74380165289257" width="30" height="20" as="geometry" />
        </mxCell>
        <mxCell id="lYcGLlEgrikcoU1FN13d-141" value="have" style="text;html=1;align=center;verticalAlign=middle;resizable=0;points=[];autosize=1;strokeColor=none;fillColor=none;fontSize=6;" vertex="1" parent="lYcGLlEgrikcoU1FN13d-154">
          <mxGeometry x="492.2698477157361" y="93.59504132231406" width="40" height="20" as="geometry" />
        </mxCell>
        <mxCell id="lYcGLlEgrikcoU1FN13d-142" value="" style="triangle;whiteSpace=wrap;html=1;fontSize=6;" vertex="1" parent="lYcGLlEgrikcoU1FN13d-154">
          <mxGeometry x="514.9556345177665" y="91.91735537190084" width="7.475162436548223" height="9.966942148760332" as="geometry" />
        </mxCell>
        <mxCell id="lYcGLlEgrikcoU1FN13d-143" style="edgeStyle=orthogonalEdgeStyle;rounded=0;orthogonalLoop=1;jettySize=auto;html=1;entryX=0;entryY=0.5;entryDx=0;entryDy=0;endArrow=none;endFill=0;fontSize=6;" edge="1" parent="lYcGLlEgrikcoU1FN13d-154" source="zkfFHV4jXpPFQw0GAbJ--5" target="lYcGLlEgrikcoU1FN13d-81">
          <mxGeometry relative="1" as="geometry" />
        </mxCell>
        <mxCell id="lYcGLlEgrikcoU1FN13d-144" value="1..1" style="text;html=1;align=center;verticalAlign=middle;resizable=0;points=[];autosize=1;strokeColor=none;fillColor=none;fontSize=6;" vertex="1" parent="lYcGLlEgrikcoU1FN13d-154">
          <mxGeometry x="489.501269035533" y="348.305785123967" width="30" height="20" as="geometry" />
        </mxCell>
        <mxCell id="lYcGLlEgrikcoU1FN13d-145" value="0..*" style="text;html=1;align=center;verticalAlign=middle;resizable=0;points=[];autosize=1;strokeColor=none;fillColor=none;fontSize=6;" vertex="1" parent="lYcGLlEgrikcoU1FN13d-154">
          <mxGeometry x="769.1277157360406" y="287.39669421487605" width="30" height="20" as="geometry" />
        </mxCell>
        <mxCell id="lYcGLlEgrikcoU1FN13d-146" value="manages" style="text;html=1;align=center;verticalAlign=middle;resizable=0;points=[];autosize=1;strokeColor=none;fillColor=none;fontSize=6;" vertex="1" parent="lYcGLlEgrikcoU1FN13d-154">
          <mxGeometry x="621.8558883248731" y="258.603305785124" width="50" height="20" as="geometry" />
        </mxCell>
        <mxCell id="lYcGLlEgrikcoU1FN13d-147" value="" style="triangle;whiteSpace=wrap;html=1;fontSize=6;" vertex="1" parent="lYcGLlEgrikcoU1FN13d-154">
          <mxGeometry x="650.6159898477158" y="256.9256198347108" width="7.475162436548223" height="9.966942148760332" as="geometry" />
        </mxCell>
        <mxCell id="lYcGLlEgrikcoU1FN13d-148" style="edgeStyle=orthogonalEdgeStyle;rounded=0;orthogonalLoop=1;jettySize=auto;html=1;entryX=0.5;entryY=0;entryDx=0;entryDy=0;endArrow=none;endFill=0;fontSize=6;" edge="1" parent="lYcGLlEgrikcoU1FN13d-154" source="lYcGLlEgrikcoU1FN13d-62" target="lYcGLlEgrikcoU1FN13d-73">
          <mxGeometry relative="1" as="geometry" />
        </mxCell>
        <mxCell id="lYcGLlEgrikcoU1FN13d-149" value="0..*" style="text;html=1;align=center;verticalAlign=middle;resizable=0;points=[];autosize=1;strokeColor=none;fillColor=none;fontSize=6;" vertex="1" parent="lYcGLlEgrikcoU1FN13d-154">
          <mxGeometry x="758.0534010152285" y="81.41322314049587" width="30" height="20" as="geometry" />
        </mxCell>
        <mxCell id="lYcGLlEgrikcoU1FN13d-150" value="0..*" style="text;html=1;align=center;verticalAlign=middle;resizable=0;points=[];autosize=1;strokeColor=none;fillColor=none;fontSize=6;" vertex="1" parent="lYcGLlEgrikcoU1FN13d-154">
          <mxGeometry x="885.4080203045685" y="132.35537190082647" width="30" height="20" as="geometry" />
        </mxCell>
        <mxCell id="lYcGLlEgrikcoU1FN13d-151" value="contains" style="text;html=1;align=center;verticalAlign=middle;resizable=0;points=[];autosize=1;strokeColor=none;fillColor=none;fontSize=6;" vertex="1" parent="lYcGLlEgrikcoU1FN13d-154">
          <mxGeometry x="832.2678680203046" y="81.41322314049587" width="50" height="20" as="geometry" />
        </mxCell>
        <mxCell id="lYcGLlEgrikcoU1FN13d-152" value="" style="triangle;whiteSpace=wrap;html=1;fontSize=6;" vertex="1" parent="lYcGLlEgrikcoU1FN13d-154">
          <mxGeometry x="861.0279695431472" y="79.73553719008265" width="7.475162436548223" height="9.966942148760332" as="geometry" />
        </mxCell>
      </root>
    </mxGraphModel>
  </diagram>
</mxfile>
